HIERARCHY
ROOT base
{
	OFFSET 0.000000 0.000000 0.000000
	CHANNELS 6 Xposition Yposition Zposition Xrotation Yrotation Zrotation
	JOINT torso
	{
		OFFSET 0.000000 0.000000 0.957307
		CHANNELS 3 Xrotation Yrotation Zrotation
		JOINT head
		{
			OFFSET 0.000000 0.000000 0.976604
			CHANNELS 3 Xrotation Yrotation Zrotation
			End Site
			{
				OFFSET 0.000000 -0.559124 -0.350384
			}
		}
		JOINT upper.left.arm
		{
			OFFSET 0.424934 0.000000 0.738044
			CHANNELS 6 Xposition Yposition Zposition Xrotation Yrotation Zrotation
			JOINT lower.left.arm
			{
				OFFSET 0.000000 -0.231105 -0.641129
				CHANNELS 3 Xrotation Yrotation Zrotation
				End Site
				{
					OFFSET 0.000000 -0.305655 -0.082005
				}
			}
		}
		JOINT upper.right.arm
		{
			OFFSET -0.424934 0.000000 0.738044
			CHANNELS 6 Xposition Yposition Zposition Xrotation Yrotation Zrotation
			JOINT lower.right.arm
			{
				OFFSET 0.000000 -0.231105 -0.641129
				CHANNELS 3 Xrotation Yrotation Zrotation
				End Site
				{
					OFFSET 0.000000 -0.305655 -0.082005
				}
			}
		}
	}
	JOINT upper.left.leg
	{
		OFFSET 0.417479 0.000000 0.949852
		CHANNELS 6 Xposition Yposition Zposition Xrotation Yrotation Zrotation
		JOINT mid.left.leg
		{
			OFFSET 0.007455 0.000000 -0.283290
			CHANNELS 3 Xrotation Yrotation Zrotation
			JOINT lower.left.leg
			{
				OFFSET 0.000000 0.000000 -0.372749
				CHANNELS 3 Xrotation Yrotation Zrotation
				End Site
				{
					OFFSET 0.000000 0.000000 -0.305655
				}
			}
		}
	}
	JOINT upper.right.leg
	{
		OFFSET -0.417479 0.000000 0.949852
		CHANNELS 6 Xposition Yposition Zposition Xrotation Yrotation Zrotation
		JOINT mid.right.leg
		{
			OFFSET -0.007455 0.000000 -0.283290
			CHANNELS 3 Xrotation Yrotation Zrotation
			JOINT lower.right.leg
			{
				OFFSET 0.000000 0.000000 -0.372749
				CHANNELS 3 Xrotation Yrotation Zrotation
				End Site
				{
					OFFSET 0.000000 0.000000 -0.305655
				}
			}
		}
	}
}
MOTION
Frames: 9
Frame Time: 0.041667
0.000000 0.000000 0.000000 -0.000000 0.000000 -0.000000 -0.000000 0.000000 -0.000000 0.000000 -0.000000 -0.000000 0.424934 0.000000 0.738044 -0.000000 0.000000 -0.000000 -0.000000 0.000000 -0.000000 -0.424934 0.000000 0.738044 -0.000000 0.000000 -0.000000 -0.000000 0.000000 -0.000000 0.417479 -0.000000 0.949852 -23.093862 0.994874 -0.236941 -1.772101 -1.331324 0.091533 23.317894 -0.101145 -0.103847 -0.417479 0.000000 0.949852 20.699091 -1.033893 -0.198469 0.787713 1.379438 0.102854 -22.022232 0.075363 -0.123346 
0.000000 0.000000 0.000000 -0.000000 0.000000 -0.000000 -0.000000 0.000000 -0.000000 0.000000 -0.000000 -0.000000 0.424934 0.000000 0.738044 -0.000000 0.000000 -0.000000 -0.000000 0.000000 -0.000000 -0.424934 0.000000 0.738044 -0.000000 0.000000 -0.000000 -0.000000 0.000000 -0.000000 0.417479 -0.000000 0.949852 -22.476802 0.984730 -0.234368 -1.718510 -1.331138 0.082006 22.616254 -0.100029 -0.103557 -0.417479 -0.000000 0.949852 19.732435 -1.048764 -0.201491 0.505622 1.541207 0.083961 -19.208515 0.098024 -0.120095 
0.000000 0.000000 0.000000 -0.000000 0.000000 -0.000000 -0.000000 0.000000 -0.000000 0.000000 -0.000000 -0.000000 0.424934 0.000000 0.738044 -0.000000 0.000000 -0.000000 -0.000000 0.000000 -0.000000 -0.424934 0.000000 0.738044 -0.000000 0.000000 -0.000000 -0.000000 0.000000 -0.000000 0.417479 0.000000 0.949852 -20.554575 0.953050 -0.225690 -1.553771 -1.330540 0.052174 20.447285 -0.097062 -0.101740 -0.417479 -0.000000 0.949852 16.779072 -1.095135 -0.212742 -0.328973 2.020455 0.031192 -10.697540 0.166451 -0.117133 
0.000000 0.000000 0.000000 -0.000000 0.000000 -0.000000 -0.000000 0.000000 -0.000000 0.000000 -0.000000 -0.000000 0.424934 0.000000 0.738044 -0.000000 0.000000 -0.000000 -0.000000 0.000000 -0.000000 -0.424934 0.000000 0.738044 -0.000000 0.000000 -0.000000 -0.000000 0.000000 -0.000000 0.417479 -0.000000 0.949852 -17.376454 0.900740 -0.209081 -1.287082 -1.329558 0.002559 16.905092 -0.093526 -0.096565 -0.417479 0.000000 0.949852 12.041425 -1.171194 -0.237008 -1.600676 2.752328 -0.039682 2.670072 0.271497 -0.132897 
0.000000 0.000000 0.000000 -0.000000 0.000000 -0.000000 -0.000000 0.000000 -0.000000 0.000000 -0.000000 -0.000000 0.424934 0.000000 0.738044 -0.000000 0.000000 -0.000000 -0.000000 0.000000 -0.000000 -0.424934 0.000000 0.738044 -0.000000 0.000000 -0.000000 -0.000000 0.000000 -0.000000 0.417479 -0.000000 0.949852 -13.296850 0.833999 -0.183599 -0.954480 -1.328311 -0.061708 12.434351 -0.091678 -0.086292 -0.417479 -0.000000 0.949852 6.230150 -1.266727 -0.277783 -3.043119 3.584469 -0.107831 18.041187 0.382901 -0.180223 
0.000000 0.000000 0.000000 -0.000000 0.000000 -0.000000 -0.000000 0.000000 -0.000000 0.000000 -0.000000 -0.000000 0.424934 0.000000 0.738044 -0.000000 0.000000 -0.000000 -0.000000 0.000000 -0.000000 -0.424934 0.000000 0.738044 -0.000000 0.000000 -0.000000 -0.000000 0.000000 -0.000000 0.417479 0.000000 0.949852 -8.921660 0.763062 -0.151058 -0.610980 -1.326901 -0.131707 7.740630 -0.093970 -0.070360 -0.417479 0.000000 0.949852 0.404492 -1.365862 -0.332484 -4.314496 4.319663 -0.162898 31.377435 0.466125 -0.243926 
0.000000 0.000000 0.000000 -0.000000 0.000000 -0.000000 -0.000000 0.000000 -0.000000 0.000000 -0.000000 -0.000000 0.424934 0.000000 0.738044 -0.000000 0.000000 -0.000000 -0.000000 0.000000 -0.000000 -0.424934 0.000000 0.738044 -0.000000 0.000000 -0.000000 -0.000000 0.000000 -0.000000 0.417479 -0.000000 0.949852 -4.841036 0.697288 -0.115817 -0.306351 -1.325325 -0.198663 3.473878 -0.101842 -0.049616 -0.417479 -0.000000 0.949852 -4.513549 -1.455610 -0.392716 -5.148108 4.803459 -0.209653 39.853751 0.510630 -0.293819 
0.000000 0.000000 0.000000 -0.000000 0.000000 -0.000000 -0.000000 0.000000 -0.000000 0.000000 -0.000000 -0.000000 0.424934 0.000000 0.738044 -0.000000 0.000000 -0.000000 -0.000000 0.000000 -0.000000 -0.424934 0.000000 0.738044 -0.000000 0.000000 -0.000000 -0.000000 0.000000 -0.000000 0.417479 -0.000000 0.949852 -1.415714 0.641679 -0.082499 -0.068604 -1.323499 -0.257065 0.004088 -0.115339 -0.025459 -0.417479 0.000000 0.949852 -8.050478 -1.530670 -0.449559 -5.428402 4.968655 -0.257045 42.653217 0.523758 -0.311720 
0.000000 0.000000 0.000000 -0.000000 0.000000 -0.000000 -0.000000 0.000000 -0.000000 0.000000 -0.000000 -0.000000 0.424934 0.000000 0.738044 -0.000000 0.000000 -0.000000 -0.000000 0.000000 -0.000000 -0.424934 0.000000 0.738044 -0.000000 0.000000 -0.000000 -0.000000 0.000000 -0.000000 0.417479 0.000000 0.949852 1.918498 0.586443 -0.046610 0.140763 -1.320975 -0.316732 -3.249462 -0.137216 0.006172 -0.417479 0.000000 0.949852 -10.778739 -1.605746 -0.509794 -5.312503 4.843568 -0.314008 42.148527 0.531323 -0.316520 
